HIERARCHY
ROOT hip
{
  OFFSET 0 0 0
  CHANNELS 6 Xposition Yposition Zposition Zrotation Yrotation Xrotation
  JOINT abdomen
  {
    OFFSET 0 20.6881 -0.73152
    CHANNELS 3 Zrotation Xrotation Yrotation
    JOINT chest
    {
      OFFSET 0 11.7043 -0.48768
      CHANNELS 3 Zrotation Xrotation Yrotation
      JOINT neck
      {
        OFFSET 0 22.1894 -2.19456
        CHANNELS 3 Zrotation Xrotation Yrotation
        JOINT head
        {
          OFFSET -0.24384 7.07133 1.2192
          CHANNELS 3 Zrotation Xrotation Yrotation
          JOINT leftEye
          {
            OFFSET 4.14528 8.04674 8.04672
            CHANNELS 3 Zrotation Xrotation Yrotation
            End Site
            {
              OFFSET 1 0 0
            }
          }
          JOINT rightEye
          {
            OFFSET -3.6576 8.04674 8.04672
            CHANNELS 3 Zrotation Xrotation Yrotation
            End Site
            {
              OFFSET 1 0 0
            }
          }
        }
      }
      JOINT rCollar
      {
        OFFSET -2.68224 19.2634 -4.8768
        CHANNELS 3 Zrotation Xrotation Yrotation
        JOINT rShldr
        {
          OFFSET -8.77824 -1.95073 1.46304
          CHANNELS 3 Zrotation Xrotation Yrotation
          JOINT rForeArm
          {
            OFFSET -28.1742 -1.7115 0.48768
            CHANNELS 3 Zrotation Xrotation Yrotation
            JOINT rHand
            {
              OFFSET -22.5879 0.773209 7.07136
              CHANNELS 3 Zrotation Xrotation Yrotation
              JOINT rThumb1
              {
                OFFSET -1.2192 -0.487915 3.41376
                CHANNELS 3 Zrotation Xrotation Yrotation
                JOINT rThumb2
                {
                  OFFSET -3.37035 -0.52449 3.41376
                  CHANNELS 3 Zrotation Xrotation Yrotation
                  End Site
                  {
                    OFFSET -1.78271 -1.18214 1.43049
                  }
                }
              }
              JOINT rIndex1
              {
                OFFSET -7.75947 0.938293 5.60832
                CHANNELS 3 Zrotation Xrotation Yrotation
                JOINT rIndex2
                {
                  OFFSET -2.54057 -0.884171 1.56538
                  CHANNELS 3 Zrotation Xrotation Yrotation
                  End Site
                  {
                    OFFSET -1.62519 -0.234802 1.16502
                  }
                }
              }
              JOINT rMid1
              {
                OFFSET -8.24714 1.18213 3.41376
                CHANNELS 3 Zrotation Xrotation Yrotation
                JOINT rMid2
                {
                  OFFSET -3.10165 -0.590103 1.0647
                  CHANNELS 3 Zrotation Xrotation Yrotation
                  End Site
                  {
                    OFFSET -2.48547 -0.328903 0.83742
                  }
                }
              }
              JOINT rRing1
              {
                OFFSET -8.82822 0.546677 1.51678
                CHANNELS 3 Zrotation Xrotation Yrotation
                JOINT rRing2
                {
                  OFFSET -2.60934 -0.819778 -0.0198488
                  CHANNELS 3 Zrotation Xrotation Yrotation
                  End Site
                  {
                    OFFSET -2.33842 -0.294052 0.168128
                  }
                }
              }
              JOINT rPinky1
              {
                OFFSET -8.27202 -0.0477905 -0.4584
                CHANNELS 3 Zrotation Xrotation Yrotation
                JOINT rPinky2
                {
                  OFFSET -1.82734 -0.647385 -0.700984
                  CHANNELS 3 Zrotation Xrotation Yrotation
                  End Site
                  {
                    OFFSET -1.69225 -0.51767 -0.607171
                  }
                }
              }
            }
          }
        }
      }
      JOINT lCollar
      {
        OFFSET 2.68224 19.2634 -4.8768
        CHANNELS 3 Zrotation Xrotation Yrotation
        JOINT lShldr
        {
          OFFSET 8.77824 -1.95073 1.46304
          CHANNELS 3 Zrotation Xrotation Yrotation
          JOINT lForeArm
          {
            OFFSET 28.1742 -1.7115 0.48768
            CHANNELS 3 Zrotation Xrotation Yrotation
            JOINT lHand
            {
              OFFSET 22.5879 0.773209 7.07136
              CHANNELS 3 Zrotation Xrotation Yrotation
              JOINT lThumb1
              {
                OFFSET 1.2192 -0.487915 3.41376
                CHANNELS 3 Zrotation Xrotation Yrotation
                JOINT lThumb2
                {
                  OFFSET 3.37035 -0.52449 3.41376
                  CHANNELS 3 Zrotation Xrotation Yrotation
                  End Site
                  {
                    OFFSET 1.78271 -1.18214 1.43049
                  }
                }
              }
              JOINT lIndex1
              {
                OFFSET 7.75947 0.938293 5.60832
                CHANNELS 3 Zrotation Xrotation Yrotation
                JOINT lIndex2
                {
                  OFFSET 2.54057 -0.884171 1.56538
                  CHANNELS 3 Zrotation Xrotation Yrotation
                  End Site
                  {
                    OFFSET 1.62519 -0.234802 1.16502
                  }
                }
              }
              JOINT lMid1
              {
                OFFSET 8.24714 1.18213 3.41376
                CHANNELS 3 Zrotation Xrotation Yrotation
                JOINT lMid2
                {
                  OFFSET 3.10165 -0.590103 1.0647
                  CHANNELS 3 Zrotation Xrotation Yrotation
                  End Site
                  {
                    OFFSET 2.48547 -0.328903 0.83742
                  }
                }
              }
              JOINT lRing1
              {
                OFFSET 8.82822 0.546677 1.51678
                CHANNELS 3 Zrotation Xrotation Yrotation
                JOINT lRing2
                {
                  OFFSET 2.60934 -0.819778 -0.0198488
                  CHANNELS 3 Zrotation Xrotation Yrotation
                  End Site
                  {
                    OFFSET 2.33842 -0.294052 0.168128
                  }
                }
              }
              JOINT lPinky1
              {
                OFFSET 8.27202 -0.0477905 -0.4584
                CHANNELS 3 Zrotation Xrotation Yrotation
                JOINT lPinky2
                {
                  OFFSET 1.82734 -0.647385 -0.700984
                  CHANNELS 3 Zrotation Xrotation Yrotation
                  End Site
                  {
                    OFFSET 1.69225 -0.51767 -0.607171
                  }
                }
              }
            }
          }
        }
      }
    }
  }
  JOINT rButtock
  {
    OFFSET -8.77824 4.35084 1.2192
    CHANNELS 3 Zrotation Xrotation Yrotation
    JOINT rThigh
    {
      OFFSET 0 -1.70687 -2.19456
      CHANNELS 3 Zrotation Xrotation Yrotation
      JOINT rShin
      {
        OFFSET 0 -36.8199 0.73152
        CHANNELS 3 Zrotation Xrotation Yrotation
        JOINT rFoot
        {
          OFFSET 0.73152 -45.1104 -5.12064
          CHANNELS 3 Zrotation Xrotation Yrotation
          End Site
          {
            OFFSET -1.1221 -3.69964 12.103
          }
        }
      }
    }
  }
  JOINT lButtock
  {
    OFFSET 8.77824 4.35084 1.2192
    CHANNELS 3 Zrotation Xrotation Yrotation
    JOINT lThigh
    {
      OFFSET 0 -1.70687 -2.19456
      CHANNELS 3 Zrotation Xrotation Yrotation
      JOINT lShin
      {
        OFFSET 0 -36.8199 0.73152
        CHANNELS 3 Zrotation Xrotation Yrotation
        JOINT lFoot
        {
          OFFSET -0.73152 -45.1104 -5.12064
          CHANNELS 3 Zrotation Xrotation Yrotation
          End Site
          {
            OFFSET 1.1221 -3.69964 12.103
          }
        }
      }
    }
  }
}
MOTION
Frames:	4
Frame Time:	0.00833333
55.7359 82.275 9.55734 539.805 -107.083 -549.965 -12.7041 17.7614 4.12055 0.418443 3.17581 0.409757 2.89258 8.47465 -2.97402 14.1236 -16.1408 -4.76164 -0.0 0.0 0.0 -0.0 0.0 0.0 4.47198e-14 -6.65385e-13 -2.67866e-13 74.9814 55.9835 -10.6512 -28.3695 -33.7519 73.2934 -0.743076 -23.7112 -3.53887 2.04565e-10 2.58804e-10 5.90656e-10 3.43712e-10 4.54162e-10 1.02143e-09 2.04572e-10 2.58808e-10 5.90654e-10 7.73091 5.47488 0.417314 2.04568e-10 2.58807e-10 5.90664e-10 2.90554 0.965183 0.102902 2.04568e-10 2.58804e-10 5.90661e-10 10.2786 0.731801 0.0259123 2.04558e-10 2.58808e-10 5.90667e-10 2.22167 -0.733487 -0.20892 4.45674e-14 -6.65337e-13 -2.6809e-13 -51.4649 27.8295 -25.3185 13.6095 -6.64909 -24.761 -0.00124897 0.280321 -0.0393912 2.41901e-10 -5.39546e-10 3.89212e-11 4.15595e-10 -9.3444e-10 6.65226e-11 2.41895e-10 -5.39536e-10 3.89491e-11 -7.73091 5.47488 -0.417314 2.41903e-10 -5.39542e-10 3.89265e-11 -2.90554 0.965183 -0.102902 2.4189e-10 -5.39543e-10 3.89281e-11 -10.2786 0.731801 -0.0259123 2.41906e-10 -5.39544e-10 3.89272e-11 -2.22167 -0.733487 0.20892 -2.03217e-16 0.0 -3.88251e-19 3.84438 -26.3282 25.8291 -0.254173 37.5729 0.786447 -20.0538 -31.6807 -30.9682 2.03217e-16 0.0 3.88251e-19 -10.3131 -4.30166 -11.6768 0.350768 42.9633 -1.07193 9.30497 -25.206 16.82
55.7237 82.3418 9.5666 540.265 -106.864 -550.565 -12.3732 17.8092 3.99424 0.534561 3.2317 0.386145 3.11827 8.50883 -2.7781 13.5717 -16.3813 -4.4296 -0.0 0.0 0.0 -0.0 0.0 0.0 9.70588e-14 -4.15876e-13 -2.35212e-13 74.1856 56.1507 -9.74948 -28.3661 -33.7029 73.2142 -0.720518 -23.3734 -3.48229 3.25794e-10 5.47612e-10 1.18622e-09 5.43374e-10 9.602e-10 2.05145e-09 3.258e-10 5.47616e-10 1.18622e-09 7.73091 5.47488 0.417314 3.25798e-10 5.47615e-10 1.18623e-09 2.90554 0.965183 0.102902 3.25797e-10 5.47612e-10 1.18623e-09 10.2786 0.731801 0.0259123 3.25786e-10 5.47616e-10 1.18623e-09 2.22167 -0.733487 -0.20892 9.69115e-14 -4.1584e-13 -2.3546e-13 -51.9577 28.2627 -25.1729 13.9274 -6.89607 -25.4083 0.000102964 -0.289752 0.0407224 -3.67704e-11 -3.41808e-10 -1.57819e-11 -6.53358e-11 -5.90266e-10 -2.63016e-11 -3.67768e-11 -3.41792e-10 -1.57501e-11 -7.73091 5.47488 -0.417314 -3.67682e-11 -3.41803e-10 -1.57756e-11 -2.90554 0.965183 -0.102902 -3.67806e-11 -3.41804e-10 -1.5774e-11 -10.2786 0.731801 -0.0259123 -3.67648e-11 -3.41805e-10 -1.57724e-11 -2.22167 -0.733487 0.20892 -2.03217e-16 0.0 -3.88251e-19 4.05683 -26.5378 24.9641 -0.257476 37.608 0.768783 -19.6143 -30.7338 -30.9399 2.03217e-16 0.0 3.88251e-19 -10.0574 -3.96912 -11.3968 0.348175 42.8354 -1.06818 9.38291 -25.0965 17.0191
56.026 82.3204 10.1744 547.713 -107.701 -557.504 -12.6898 17.7427 3.84419 0.657822 3.24685 0.324998 3.28242 8.61832 -2.61151 13.3317 -16.576 -4.1198 -0.0 0.0 0.0 -0.0 0.0 0.0 1.02635e-13 -4.07444e-13 -2.32106e-13 73.8234 56.1209 -9.19687 -28.365 -33.6907 73.1961 -0.696954 -23.0162 -3.42272 2.75935e-10 5.22913e-10 1.11549e-09 4.5889e-10 9.15701e-10 1.92792e-09 2.75941e-10 5.22916e-10 1.11549e-09 7.73091 5.47488 0.417314 2.75939e-10 5.22915e-10 1.11549e-09 2.90554 0.965183 0.102902 2.75937e-10 5.22912e-10 1.11549e-09 10.2786 0.731801 0.0259123 2.75927e-10 5.22916e-10 1.1155e-09 2.22167 -0.733487 -0.20892 1.025e-13 -4.07413e-13 -2.32401e-13 -52.2823 28.7922 -25.2157 14.1136 -7.04195 -25.7915 0.00167082 -0.561879 0.078953 2.51367e-10 -2.89109e-10 -9.82144e-11 4.32603e-10 -4.98771e-10 -1.68745e-10 2.51361e-10 -2.89094e-10 -9.81859e-11 -7.73091 5.47488 -0.417314 2.51369e-10 -2.89104e-10 -9.82064e-11 -2.90554 0.965183 -0.102902 2.51358e-10 -2.89105e-10 -9.82054e-11 -10.2786 0.731801 -0.0259123 2.51372e-10 -2.89106e-10 -9.82041e-11 -2.22167 -0.733487 0.20892 -2.03217e-16 0.0 -3.88251e-19 3.48875 -26.9196 24.1472 -0.262702 37.7657 0.758965 -18.9164 -30.1185 -30.323 2.03217e-16 0.0 3.88251e-19 -10.4801 -3.7031 -11.2323 0.340181 42.4925 -1.06119 9.44141 -24.8104 17.2651
56.0697 82.4299 10.1499 547.855 -107.163 -557.862 -13.4277 17.6242 3.67234 0.799587 3.24056 0.235912 3.42201 8.77962 -2.45393 13.2847 -16.757 -3.80591 -0.0 0.0 0.0 -0.0 0.0 0.0 7.8269e-14 -5.20034e-13 -2.3615e-13 73.7335 55.9563 -8.85047 -28.3659 -33.7079 73.2258 -0.672737 -22.6418 -3.36061 1.05121e-10 2.91709e-10 5.98975e-10 1.73212e-10 5.0836e-10 1.03253e-09 1.05128e-10 2.91709e-10 5.98971e-10 7.73091 5.47488 0.417314 1.05126e-10 2.91708e-10 5.98981e-10 2.90554 0.965183 0.102902 1.05123e-10 2.91705e-10 5.98976e-10 10.2786 0.731801 0.0259123 1.05114e-10 2.91709e-10 5.98985e-10 2.22167 -0.733487 -0.20892 7.81547e-14 -5.20008e-13 -2.36507e-13 -52.5509 29.3493 -25.3481 14.2076 -7.11904 -25.9806 0.00222535 -0.62156 0.0873354 8.89433e-10 -2.90762e-10 -1.97382e-10 1.53497e-09 -5.02315e-10 -3.41081e-10 8.89428e-10 -2.90751e-10 -1.97362e-10 -7.73091 5.47488 -0.417314 8.89435e-10 -2.90757e-10 -1.97372e-10 -2.90554 0.965183 -0.102902 8.89428e-10 -2.90757e-10 -1.97372e-10 -10.2786 0.731801 -0.0259123 8.89437e-10 -2.90759e-10 -1.97373e-10 -2.22167 -0.733487 0.20892 -2.03217e-16 0.0 -3.88251e-19 2.40234 -27.4449 23.2818 -0.269295 38.0054 0.753745 -18.0477 -29.6315 -29.3464 2.03217e-16 0.0 3.88251e-19 -11.334 -3.45833 -11.1487 0.328037 41.9726 -1.05125 9.48416 -24.3834 17.5546
